<?xml version="1.0" encoding="UTF-8"?> <!-- Generator: Adobe Illustrator 22.1.0, SVG Export Plug-In . SVG Version: 6.00 Build 0) --> <svg xmlns="http://www.w3.org/2000/svg" xmlns:xlink="http://www.w3.org/1999/xlink" id="Camada_1" x="0px" y="0px" viewBox="0 0 202 88" style="enable-background:new 0 0 202 88;" xml:space="preserve"> <style type="text/css"> .st0{fill-rule:evenodd;clip-rule:evenodd;fill:#FFFFFF;} .st1{fill-rule:evenodd;clip-rule:evenodd;fill:#69100F;} </style> <g> <path class="st0" d="M153.9,13.7c0,2.1,1.1,3.2,3.2,3.2h31.2c2.1,0,3.2-1.1,3.2-3.2c0-2.1-1.1-3.2-3.2-3.2H157 C154.9,10.6,153.9,11.6,153.9,13.7z"></path> <path class="st0" d="M157.7,30.4c0,2.1,1.1,3.2,3.2,3.2h23.3c2.1,0,3.2-1.1,3.2-3.2s-1.1-3.2-3.2-3.2h-23.3 C158.8,27.2,157.7,28.3,157.7,30.4z"></path> <path class="st0" d="M153.8,47c0,2.1,1.1,3.2,3.2,3.2h31.2c2.1,0,3.2-1.1,3.2-3.2c0-2.1-1.1-3.2-3.2-3.2h-31.2 C154.8,43.8,153.8,44.9,153.8,47z"></path> <path class="st0" d="M180.7,70.9c0.2,0,0.4-0.1,0.6-0.2c0.1-0.1,0.2-0.3,0.2-0.5c0-0.2-0.1-0.3-0.2-0.4c-0.2-0.1-0.3-0.2-0.6-0.2 h-0.9c-0.9,0-1.7-0.3-2.3-0.8c-0.6-0.5-0.9-1.2-0.9-1.9c0-0.7,0.3-1.4,0.9-1.9c0.6-0.5,1.4-0.8,2.3-0.8h10.9c0.2,0,0.4-0.1,0.5-0.2 c0.2-0.1,0.2-0.3,0.2-0.4c0-0.2-0.1-0.3-0.2-0.5c-0.1-0.1-0.3-0.2-0.5-0.2h-10.9c-1.3,0-2.5,0.4-3.4,1.1c-0.9,0.8-1.4,1.7-1.4,2.8 c0,1.1,0.5,2,1.4,2.8c0.9,0.8,2.1,1.2,3.4,1.2H180.7z M185.7,69.6c-0.2,0-0.4,0.1-0.6,0.2c-0.1,0.1-0.2,0.3-0.2,0.4 c0,0.2,0.1,0.3,0.2,0.5c0.1,0.1,0.3,0.2,0.6,0.2h0.9c0.9,0,1.7,0.3,2.3,0.8c0.6,0.5,1,1.2,1,1.9c0,0.7-0.3,1.4-1,1.9 c-0.6,0.5-1.4,0.8-2.3,0.8h-10.9c-0.2,0-0.4,0.1-0.6,0.2c-0.1,0.1-0.2,0.3-0.2,0.4c0,0.2,0.1,0.3,0.2,0.5c0.2,0.1,0.3,0.2,0.6,0.2 h10.9c1.3,0,2.5-0.4,3.4-1.2c0.9-0.8,1.4-1.7,1.4-2.8c0-1.1-0.5-2-1.4-2.8c-0.9-0.8-2.1-1.2-3.4-1.2H185.7z M157.6,63.2 c-0.2-0.2-0.5-0.3-0.8-0.2c-0.3,0.1-0.5,0.3-0.5,0.6v13.2c0,0.2,0.1,0.3,0.2,0.5c0.2,0.1,0.3,0.2,0.6,0.2c0.2,0,0.4-0.1,0.5-0.2 c0.2-0.1,0.2-0.3,0.2-0.5V65.3l4.2,3.9c0.1,0.1,0.3,0.2,0.5,0.2c0.2,0,0.4,0,0.6-0.2c0.2-0.1,0.2-0.3,0.3-0.4 c0-0.2-0.1-0.3-0.2-0.5L157.6,63.2z M171.9,63c-0.2,0-0.4,0.1-0.5,0.2c-0.2,0.1-0.2,0.3-0.2,0.5v11.5l-4.2-3.9 c-0.1-0.1-0.3-0.2-0.5-0.2c-0.2,0-0.4,0-0.6,0.2c-0.2,0.1-0.3,0.3-0.3,0.4c0,0.2,0.1,0.3,0.2,0.5l5.6,5.1c0.2,0.1,0.4,0.2,0.6,0.2 c0.1,0,0.2,0,0.3,0c0.3-0.1,0.5-0.3,0.5-0.6V63.7c0-0.2-0.1-0.3-0.2-0.5C172.3,63.1,172.1,63,171.9,63z M140.8,63 c-0.9,0-1.7,0.3-2.3,0.8c-0.6,0.5-1,1.1-1,1.9v9.1c0,0.7,0.3,1.4,1,1.9c0.6,0.5,1.4,0.8,2.3,0.8h9.9c0.9,0,1.7-0.3,2.3-0.8 c0.6-0.5,1-1.2,1-1.9v-9.1c0-0.7-0.3-1.4-1-1.9c-0.6-0.5-1.4-0.8-2.3-0.8H140.8z M152.4,74.8c0,0.4-0.2,0.7-0.5,1 c-0.3,0.3-0.7,0.4-1.2,0.4h-9.9c-0.5,0-0.9-0.1-1.2-0.4c-0.3-0.3-0.5-0.6-0.5-1v-9.1c0-0.4,0.2-0.7,0.5-1c0.3-0.3,0.7-0.4,1.2-0.4 h9.9c0.5,0,0.9,0.1,1.2,0.4c0.3,0.3,0.5,0.6,0.5,1V74.8z M145.8,69.1c-0.2,0-0.4,0.1-0.6,0.2c-0.1,0.1-0.2,0.3-0.2,0.5v1 c0,0.2,0.1,0.3,0.2,0.5c0.2,0.1,0.3,0.2,0.6,0.2c0.2,0,0.4-0.1,0.5-0.2c0.2-0.1,0.2-0.3,0.2-0.5v-1c0-0.2-0.1-0.3-0.2-0.5 C146.1,69.2,146,69.1,145.8,69.1z M134.5,77.5c-0.2,0-0.4-0.1-0.6-0.2c-0.1-0.1-0.2-0.3-0.2-0.5V63.7c0-0.2,0.1-0.3,0.2-0.5 c0.2-0.1,0.3-0.2,0.6-0.2c0.2,0,0.4,0.1,0.5,0.2c0.2,0.1,0.2,0.3,0.2,0.5v13.2c0,0.2-0.1,0.3-0.2,0.5 C134.9,77.4,134.7,77.5,134.5,77.5z M115.8,63c-0.2,0-0.4,0.1-0.6,0.2c-0.1,0.1-0.2,0.3-0.2,0.5c0,0.2,0.1,0.3,0.2,0.4 c0.2,0.1,0.3,0.2,0.6,0.2h7v12.6c0,0.2,0.1,0.3,0.2,0.5c0.1,0.1,0.3,0.2,0.5,0.2c0.2,0,0.4-0.1,0.6-0.2c0.1-0.1,0.2-0.3,0.2-0.5 V64.3h6.4c0.2,0,0.4-0.1,0.5-0.2c0.2-0.1,0.2-0.3,0.2-0.4c0-0.2-0.1-0.3-0.2-0.5c-0.1-0.1-0.3-0.2-0.5-0.2H115.8z M112,63 c-0.2,0-0.4,0.1-0.5,0.2c-0.2,0.1-0.2,0.3-0.2,0.5v9.1c0,0.9-0.4,1.7-1.2,2.4c-0.8,0.7-1.8,1-3,1c-0.2,0-0.4,0.1-0.6,0.2 c-0.1,0.1-0.2,0.3-0.2,0.4c0,0.2,0.1,0.3,0.2,0.5c0.1,0.1,0.3,0.2,0.6,0.2c1.6,0,2.9-0.5,4.1-1.4c1.1-0.9,1.7-2,1.7-3.3v-9.1 c0-0.2-0.1-0.3-0.2-0.5C112.4,63.1,112.2,63,112,63L112,63z M102,76.2c-1.2,0-2.1-0.3-3-1c-0.8-0.7-1.2-1.5-1.2-2.4v-9.1 c0-0.2-0.1-0.3-0.2-0.5c-0.1-0.1-0.3-0.2-0.5-0.2c-0.2,0-0.4,0.1-0.6,0.2c-0.1,0.1-0.2,0.3-0.2,0.5v9.1c0,1.3,0.6,2.4,1.7,3.3 c1.1,0.9,2.5,1.4,4.1,1.4c0.2,0,0.4-0.1,0.6-0.2c0.1-0.1,0.2-0.3,0.2-0.5c0-0.2-0.1-0.3-0.2-0.4C102.4,76.3,102.3,76.2,102,76.2z M78.4,77.5c-0.2,0-0.4-0.1-0.6-0.2c-0.1-0.1-0.2-0.3-0.2-0.5V63.7c0-0.2,0.1-0.3,0.2-0.5c0.2-0.1,0.3-0.2,0.6-0.2 c0.2,0,0.4,0.1,0.5,0.2c0.2,0.1,0.2,0.3,0.2,0.5v12.6h14.1c0.2,0,0.4,0.1,0.5,0.2c0.2,0.1,0.2,0.3,0.2,0.4c0,0.2-0.1,0.3-0.2,0.5 c-0.1,0.1-0.3,0.2-0.5,0.2H78.4z M62.1,63c-0.9,0-1.7,0.3-2.3,0.8c-0.6,0.5-1,1.1-1,1.9v9.1c0,0.7,0.3,1.4,1,1.9 c0.6,0.5,1.4,0.8,2.3,0.8h9.9c0.9,0,1.7-0.3,2.3-0.8c0.6-0.5,1-1.2,1-1.9v-9.1c0-0.7-0.3-1.4-1-1.9C73.8,63.3,73,63,72.1,63H62.1z M73.8,74.8c0,0.4-0.2,0.7-0.5,1c-0.3,0.3-0.7,0.4-1.2,0.4h-9.9c-0.5,0-0.9-0.1-1.2-0.4c-0.3-0.3-0.5-0.6-0.5-1v-9.1 c0-0.4,0.2-0.7,0.5-1c0.3-0.3,0.7-0.4,1.2-0.4h9.9c0.5,0,0.9,0.1,1.2,0.4c0.3,0.3,0.5,0.6,0.5,1V74.8z M67.1,69.1 c-0.2,0-0.4,0.1-0.6,0.2c-0.1,0.1-0.2,0.3-0.2,0.5v1c0,0.2,0.1,0.3,0.2,0.5c0.2,0.1,0.3,0.2,0.6,0.2c0.2,0,0.4-0.1,0.5-0.2 c0.2-0.1,0.2-0.3,0.2-0.5v-1c0-0.2-0.1-0.3-0.2-0.5C67.5,69.2,67.3,69.1,67.1,69.1z M45.9,70.9c0.2,0,0.4-0.1,0.6-0.2 c0.1-0.1,0.2-0.3,0.2-0.5c0-0.2-0.1-0.3-0.2-0.4c-0.2-0.1-0.3-0.2-0.6-0.2H45c-0.9,0-1.7-0.3-2.3-0.8c-0.6-0.5-0.9-1.2-0.9-1.9 c0-0.7,0.3-1.4,0.9-1.9c0.6-0.5,1.4-0.8,2.3-0.8h10.9c0.2,0,0.4-0.1,0.5-0.2c0.2-0.1,0.2-0.3,0.2-0.4c0-0.2-0.1-0.3-0.2-0.5 c-0.1-0.1-0.3-0.2-0.5-0.2H45c-1.3,0-2.5,0.4-3.4,1.1c-0.9,0.8-1.4,1.7-1.4,2.8c0,1.1,0.5,2,1.4,2.8c0.9,0.8,2.1,1.2,3.4,1.2H45.9z M50.9,69.6c-0.2,0-0.4,0.1-0.6,0.2c-0.1,0.1-0.2,0.3-0.2,0.4c0,0.2,0.1,0.3,0.2,0.5c0.1,0.1,0.3,0.2,0.6,0.2h0.9 c0.9,0,1.7,0.3,2.3,0.8c0.6,0.5,1,1.2,1,1.9c0,0.7-0.3,1.4-1,1.9c-0.6,0.5-1.4,0.8-2.3,0.8H40.9c-0.2,0-0.4,0.1-0.6,0.2 c-0.1,0.1-0.2,0.3-0.2,0.4c0,0.2,0.1,0.3,0.2,0.5c0.2,0.1,0.3,0.2,0.6,0.2h10.9c1.3,0,2.5-0.4,3.4-1.2c0.9-0.8,1.4-1.7,1.4-2.8 c0-1.1-0.5-2-1.4-2.8c-0.9-0.8-2.1-1.2-3.4-1.2H50.9z M15.1,63c-0.2,0-0.4,0.1-0.6,0.2c-0.1,0.1-0.2,0.3-0.2,0.5 c0,0.2,0.1,0.3,0.2,0.4c0.2,0.1,0.3,0.2,0.6,0.2h7v12.6c0,0.2,0.1,0.3,0.2,0.5c0.1,0.1,0.3,0.2,0.5,0.2c0.2,0,0.4-0.1,0.6-0.2 c0.1-0.1,0.2-0.3,0.2-0.5V64.3h6.4c0.2,0,0.4-0.1,0.5-0.2c0.2-0.1,0.2-0.3,0.2-0.4c0-0.2-0.1-0.3-0.2-0.5c-0.1-0.1-0.3-0.2-0.5-0.2 H15.1z M11.4,77.5c-0.2,0-0.4-0.1-0.6-0.2c-0.1-0.1-0.2-0.3-0.2-0.5V63.7c0-0.2,0.1-0.3,0.2-0.5c0.2-0.1,0.3-0.2,0.6-0.2 c0.2,0,0.4,0.1,0.5,0.2c0.2,0.1,0.2,0.3,0.2,0.5v13.2c0,0.2-0.1,0.3-0.2,0.5C11.8,77.4,11.6,77.5,11.4,77.5z"></path> <path class="st0" d="M14.9,50.8c-0.8,0-1.5-0.3-2.1-0.9c-0.6-0.6-0.9-1.3-0.9-2.1V30.7c0-0.8,0.3-1.5,0.9-2.1 c0.6-0.6,1.3-0.9,2.1-0.9h21.8c1.6,0,2.9-0.5,4-1.6c1.1-1.1,1.7-2.4,1.7-4c0-1.5-0.6-2.9-1.7-4c-1.1-1.1-2.4-1.7-4-1.7H13.6 c-0.8,0-1.5-0.3-2.1-0.9c-0.6-0.6-0.9-1.3-0.9-2.1c0-0.8,0.3-1.5,0.9-2.1c0.6-0.6,1.3-0.9,2.1-0.9h23.1c3.2,0,5.9,1.1,8.2,3.4 c2.2,2.3,3.4,5,3.4,8.2c0,3.2-1.1,5.9-3.4,8.2c-2.3,2.2-5,3.4-8.2,3.4H17.9v14.2c0,0.8-0.3,1.5-0.9,2.1 C16.4,50.6,15.7,50.8,14.9,50.8z"></path> <path class="st0" d="M86.2,31.2c3-2.3,4.5-5.4,4.5-9.1c0-3.2-1.1-5.9-3.4-8.2c-2.3-2.3-5-3.4-8.2-3.4H56c-0.8,0-1.5,0.3-2.1,0.9 C53.3,12,53,12.7,53,13.5c0,0.8,0.3,1.5,0.9,2.1c0.6,0.6,1.3,0.9,2.1,0.9h23.1c1.6,0,2.9,0.6,4,1.7c1.1,1.1,1.7,2.4,1.7,4 c0,1.6-0.6,2.9-1.7,4c-1.1,1.1-2.4,1.6-4,1.6H56c-0.8,0-1.5,0.3-2.1,0.9c-0.6,0.6-0.9,1.3-0.9,2.1c0,0.8,0.3,1.5,0.9,2.1 c0.6,0.6,1.3,0.9,2.1,0.9h21.1c2.1,0,3.9,0.7,5.4,2.2c1.5,1.5,2.2,3.3,2.2,5.4v6.6c0,0.8,0.3,1.5,0.9,2.1c0.6,0.6,1.3,0.9,2.1,0.9 c0.8,0,1.5-0.3,2.1-0.9c0.6-0.6,0.9-1.3,0.9-2.1v-6.6C90.6,37.3,89.2,33.9,86.2,31.2z"></path> <path class="st0" d="M98.4,50.8c-0.8,0-1.5-0.3-2.1-0.9c-0.6-0.6-0.9-1.3-0.9-2.1V13.5c0-0.8,0.3-1.5,0.9-2.1 c0.6-0.6,1.3-0.9,2.1-0.9c0.8,0,1.5,0.3,2.1,0.9c0.6,0.6,0.9,1.3,0.9,2.1v34.4c0,0.8-0.3,1.5-0.9,2.1 C99.9,50.6,99.2,50.8,98.4,50.8z"></path> <path class="st0" d="M146,50.8c-0.8,0-1.5-0.3-2.1-0.9c-0.6-0.6-0.9-1.3-0.9-2.1V20.3l-13.5,12.5c-0.6,0.5-1.2,0.8-2,0.8 c-0.8,0-1.5-0.3-2-0.8L112,20.3v27.5c0,0.8-0.3,1.5-0.9,2.1c-0.6,0.6-1.3,0.9-2.1,0.9c-0.8,0-1.5-0.3-2.1-0.9 c-0.6-0.6-0.9-1.3-0.9-2.1V13.5c0-1.3,0.6-2.2,1.8-2.7c1.2-0.5,2.3-0.3,3.2,0.5l16.5,15.3L144,11.3c0.9-0.9,2-1,3.2-0.5 c1.2,0.5,1.8,1.4,1.8,2.7v34.4c0,0.8-0.3,1.5-0.9,2.1C147.6,50.6,146.9,50.8,146,50.8z"></path> </g> </svg> 